{
  "accessors": [
    {
      "bufferView": 2,
      "componentType": 5126,
      "count": 748,
      "max": [
        0.014389878138899803,
        0.00032297798315994442,
        0.013462511822581291
      ],
      "min": [
        -0.014389876276254654,
        -0.039286203682422638,
        -0.010675241239368916
      ],
      "type": "VEC3"
    },
    {
      "bufferView": 2,
      "byteOffset": 8976,
      "componentType": 5126,
      "count": 748,
      "max": [
        0.066114939749240875,
        0.066377215087413788,
        0.066377192735671997
      ],
      "min": [
        -0.066114932298660278,
        -0.066377215087413788,
        -0.066372528672218323
      ],
      "type": "VEC3"
    },
    {
      "bufferView": 3,
      "componentType": 5126,
      "count": 748,
      "max": [
        0.99964463710784912,
        0.99999988079071045,
        1,
        1
      ],
      "min": [
        -0.99964463710784912,
        -0.99982953071594238,
        -0.99813365936279297,
        -1
      ],
      "type": "VEC4"
    },
    {
      "bufferView": 1,
      "componentType": 5126,
      "count": 748,
      "max": [
        0.97578603029251099,
        0.99142462015151978
      ],
      "min": [
        0.0031560659408569336,
        0.0087547525763511658
      ],
      "type": "VEC2"
    },
    {
      "bufferView": 0,
      "componentType": 5125,
      "count": 3804,
      "max": [
        747
      ],
      "min": [
        0
      ],
      "type": "SCALAR"
    },
    {
      "bufferView": 4,
      "componentType": 5126,
      "count": 1,
      "max": [
        1,
        0,
        0,
        0,
        0,
        1,
        0,
        0,
        0,
        0,
        1,
        0,
        0,
        0,
        0,
        1
      ],
      "min": [
        1,
        0,
        0,
        0,
        0,
        1,
        0,
        0,
        0,
        0,
        1,
        0,
        0,
        0,
        0,
        1
      ],
      "type": "MAT4"
    }
  ],
  "asset": {
    "generator": "Sketchfab (OSG glTF plugin)",
    "version": "2.0"
  },
  "bufferViews": [
    {
      "buffer": 0,
      "byteLength": 15216,
      "byteOffset": 0,
      "name": "floatBufferViews",
      "target": 34963
    },
    {
      "buffer": 0,
      "byteLength": 5984,
      "byteOffset": 15216,
      "byteStride": 8,
      "name": "floatBufferViews",
      "target": 34962
    },
    {
      "buffer": 0,
      "byteLength": 17952,
      "byteOffset": 21200,
      "byteStride": 12,
      "name": "floatBufferViews",
      "target": 34962
    },
    {
      "buffer": 0,
      "byteLength": 11968,
      "byteOffset": 39152,
      "byteStride": 16,
      "name": "floatBufferViews",
      "target": 34962
    },
    {
      "buffer": 0,
      "byteLength": 64,
      "byteOffset": 51120,
      "byteStride": 64,
      "name": "floatBufferViews"
    }
  ],
  "buffers": [
    {
      "byteLength": 51184,
      "uri": "scene.bin"
    }
  ],
  "images": [
    {
      "uri": "textures/PenguinMaterial_Ford_baseColor.png"
    }
  ],
  "materials": [
    {
      "doubleSided": true,
      "name": "PenguinMaterial_Ford",
      "pbrMetallicRoughness": {
        "baseColorFactor": [
          1,
          1,
          1,
          1
        ],
        "baseColorTexture": {
          "index": 0,
          "texCoord": 0
        },
        "metallicFactor": 0,
        "roughnessFactor": 0.41291920729999998
      }
    }
  ],
  "meshes": [
    {
      "primitives": [
        {
          "attributes": {
            "NORMAL": 1,
            "POSITION": 0,
            "TANGENT": 2,
            "TEXCOORD_0": 3
          },
          "indices": 4,
          "material": 0,
          "mode": 4
        }
      ]
    }
  ],
  "nodes": [
    {
      "children": [
        1
      ],
      "name": "RootNode (gltf orientation matrix)",
      "rotation": [
        -0.70710678118654746,
        -0,
        -0,
        0.70710678118654757
      ]
    },
    {
      "children": [
        2
      ],
      "name": "RootNode (model correction matrix)"
    },
    {
      "children": [
        3
      ],
      "matrix": [
        1,
        0,
        0,
        0,
        0,
        0,
        1,
        0,
        0,
        -1,
        0,
        0,
        0,
        0,
        0,
        1
      ],
      "name": "c6329977715d42098bbc466dcc77adf9.fbx"
    },
    {
      "children": [
        4,
        10
      ],
      "name": "RootNode"
    },
    {
      "children": [
        5
      ],
      "matrix": [
        15.065410614013672,
        0,
        0,
        0,
        0,
        -2.4544669325520155e-06,
        -15.065410614013473,
        0,
        0,
        15.065410614013473,
        -2.4544669325520155e-06,
        0,
        0,
        0,
        0,
        1
      ],
      "name": "metarig"
    },
    {
      "children": [
        6,
        7
      ],
      "name": ""
    },
    {
      "name": "_rootJoint"
    },
    {
      "children": [
        8
      ],
      "matrix": [
        100.00000051964344,
        0,
        0,
        0,
        0,
        2.3158670488573092e-06,
        -100.00000815645477,
        0,
        0,
        100.00000783625717,
        2.3158670414419593e-06,
        0,
        0,
        -9.6719475095596863e-08,
        2.7083981990472239e-07,
        1
      ],
      "name": ""
    },
    {
      "children": [
        9
      ],
      "name": "Geode"
    },
    {
      "mesh": 0,
      "name": ""
    },
    {
      "children": [
        11
      ],
      "matrix": [
        -26.431736350433933,
        -13.952935940453393,
        -95.428912632723154,
        0,
        -3.7246204163746368,
        99.021785748020775,
        -13.446621291170002,
        0,
        96.371619216324419,
        0.00018927533379436658,
        -26.692873275634827,
        0,
        334.57565307617188,
        251.92875671386719,
        217.7939453125,
        1
      ],
      "name": "Camera"
    },
    {
      "name": ""
    }
  ],
  "samplers": [
    {
      "magFilter": 9729,
      "minFilter": 9987,
      "wrapS": 10497,
      "wrapT": 10497
    }
  ],
  "scene": 0,
  "scenes": [
    {
      "name": "OSG_Scene",
      "nodes": [
        0
      ]
    }
  ],
  "skins": [
    {
      "inverseBindMatrices": 5,
      "joints": [
        6
      ],
      "skeleton": 6
    }
  ],
  "textures": [
    {
      "sampler": 0,
      "source": 0
    }
  ]
}

